Coordinates
version=1
nRows=8
nColumns=33
inDegrees=yes

Units are S.I. units (second, meters, Newtons, ...)
Angles are in degrees.

endheader
time	ground_thorax_rot_x	ground_thorax_rot_y	ground_thorax_rot_z	ground_thorax_tx	ground_thorax_ty	ground_thorax_tz	clav_prot_r	clav_elev_r	scapula_abduction_r	scapula_elevation_r	scapula_upward_rot_r	scapula_winging_r	shoulder_elv_r	plane_of_elev_r	axial_rot_r	elbow_flexion_r	pro_sup_r	wrist_flex_r	wrist_dev_r	clav_prot_l	clav_elev_l	scapula_abduction_l	scapula_elevation_l	scapula_upward_rot_l	scapula_winging_l	shoulder_elv_l	plane_of_elev_l	axial_rot_l	elbow_flexion_l	pro_sup_l	wrist_flex_l	wrist_dev_l
      6.57000000	     -0.97570642	      2.03462923	     12.75002504	     -0.11842436	      1.02909542	      0.01178623	      8.39569849	    -15.26956068	     15.01114271	     -7.91979241	      0.38058612	     -0.33362051	    -18.96951099	    -72.02924432	    113.08518221	    -84.16240830	   -161.93325327	     11.15397907	     -1.27103507	     11.02163932	     -4.28393213	    -14.11539977	    -16.64288128	    -33.12001270	     -0.04316344	     58.53967843	    -23.26344510	      7.79019832	     68.02939028	     11.30424622	     18.68158351	    -12.40010649
      6.58000000	     -0.82103843	      1.87947737	     12.81484904	     -0.11880897	      1.02912485	      0.01179375	      8.25947332	    -14.85195631	     14.75260443	     -7.50583538	      0.30988006	     -0.45537072	    -19.56929800	    -72.59319512	    113.05879361	    -84.78990430	   -161.99622834	     11.37137366	     -1.28591416	     10.84706762	     -3.95461968	    -13.83183354	    -17.12678263	    -33.45582439	     -0.22471864	     58.31358508	    -23.81963249	      7.87062297	     68.88384678	     11.17438302	     18.60368898	    -12.57842302
      6.59000000	     -0.62932505	      1.89913251	     12.66696167	     -0.11914167	      1.02931297	      0.01174694	      8.13978175	    -14.47432104	     14.43885048	     -7.05957377	      0.07088449	     -0.52841463	    -19.84881444	    -72.87895441	    112.90121314	    -85.31269740	   -162.03408292	     11.56119861	     -1.41233135	     10.69818231	     -3.71643717	    -13.58832830	    -17.48303213	    -33.70718895	     -0.37473687	     58.14552692	    -24.22071007	      7.83903775	     69.74621123	     11.06911563	     18.54286980	    -12.76990756
      6.60000000	     -0.52970185	      1.80578399	     12.81984556	     -0.11952015	      1.02910750	      0.01187742	      8.02202813	    -14.04254662	     14.07121873	     -6.51387996	     -0.28687506	     -0.60246372	    -20.38532561	    -73.35049149	    112.87782741	    -86.03147272	   -162.05711114	     11.88183483	     -1.63299492	     10.56646624	     -3.37813812	    -13.37779260	    -17.96701642	    -34.02404015	     -0.53115723	     58.05952789	    -24.97859640	      7.61033911	     70.57751661	     10.97869416	     18.44771640	    -13.00998824
      6.61000000	     -0.49236313	      1.56545535	     12.79835101	     -0.11931182	      1.03024120	      0.01183190	      7.96808492	    -14.10705789	     14.13115426	     -6.70488918	      0.02942235	     -0.59595114	    -23.85991826	    -74.11659540	    110.40304367	    -85.66038967	   -162.24500024	     14.90255651	     -5.28055378	      9.59419984	     -3.32341496	    -11.55472215	    -17.79560798	    -33.47549424	     -1.22989437	     58.70653363	    -26.73292570	      5.80451268	     71.10503523	     10.74443685	     16.25511948	    -14.59124547
      6.62000000	     -0.27915604	      1.56748414	     12.70294431	     -0.11965100	      1.03019237	      0.01185781	      7.88238717	    -13.66829555	     13.82872587	     -6.16552356	     -0.29616234	     -0.69263547	    -24.19990499	    -74.47034905	    110.29185176	    -86.26788063	   -162.24781033	     15.07920637	     -5.33228649	      9.47841628	     -3.05098540	    -11.36052151	    -18.19128349	    -33.73396425	     -1.36657448	     58.52879488	    -27.15918956	      5.68093799	     71.79487653	     10.68375974	     16.24665179	    -14.73812153
      6.63000000	     -0.15530958	      1.49189412	     12.92799964	     -0.12006833	      1.02993412	      0.01189894	      7.80873499	    -13.21292906	     13.49565213	     -5.56253661	     -0.73460968	     -0.77727467	    -24.75057821	    -75.04384516	    110.28862655	    -86.80839500	   -162.18844819	     15.38312486	     -5.49902315	      9.37169286	     -2.69423925	    -11.18628200	    -18.69072538	    -34.03957873	     -1.50721479	     58.39769531	    -27.86935352	      5.38081501	     72.41668214	     10.66964777	     16.20412657	    -14.95515651
      6.64000000	     -0.17045314	      1.26580009	     12.91077781	     -0.12003793	      1.03059106	      0.01181500	      7.87007104	    -13.16400666	     13.64325447	     -5.55576493	     -0.63702441	     -0.85796281	    -27.77078528	    -75.53728814	    108.08270581	    -86.36760197	   -161.21420749	     18.64742148	     -8.71849308	      8.64765086	     -2.26298522	     -9.74857570	    -18.83892517	    -33.41046316	     -2.02997383	     58.65503117	    -29.14394248	      3.96199960	     72.67118684	     11.37261812	     14.76103152	    -16.87872202
